<?xml version="1.0" encoding="utf-8"?>
<!-- Generator: Adobe Illustrator 16.0.0, SVG Export Plug-In . SVG Version: 6.00 Build 0)  -->
<!DOCTYPE svg PUBLIC "-//W3C//DTD SVG 1.1//EN" "http://www.w3.org/Graphics/SVG/1.1/DTD/svg11.dtd" [
	<!ENTITY ns_flows "http://ns.adobe.com/Flows/1.0/">
	<!ENTITY ns_extend "http://ns.adobe.com/Extensibility/1.0/">
	<!ENTITY ns_ai "http://ns.adobe.com/AdobeIllustrator/10.0/">
	<!ENTITY ns_graphs "http://ns.adobe.com/Graphs/1.0/">
]>
<svg version="1.1" id="Layer_1" xmlns:x="&ns_extend;" xmlns:i="&ns_ai;" xmlns:graph="&ns_graphs;"
	 xmlns="http://www.w3.org/2000/svg" xmlns:xlink="http://www.w3.org/1999/xlink" xmlns:a="http://ns.adobe.com/AdobeSVGViewerExtensions/3.0/"
	 x="0px" y="0px" width="443.1px" height="332.3px" viewBox="0 0 443.1 332.3" enable-background="new 0 0 443.1 332.3"
	 xml:space="preserve">
<g id="Layer_1_xA0_Image_1_" display="none">
	
		<image display="inline" overflow="visible" enable-background="new    " width="579" height="680" id="Layer_1_xA0_Image" xlink:href="A0D3AF7B.png"  transform="matrix(0.4599 0 0 0.4601 31.3848 11.0757)">
	</image>
</g>
<g id="Layer_2">
	<rect x="128.2" y="134.1" fill="none" stroke="#000000" stroke-miterlimit="10" width="23.7" height="51"/>
</g>
<g id="Layer_3">
	<polygon fill="none" stroke="#000000" stroke-miterlimit="10" points="128.2,134.1 128.2,138.1 119.5,138.1 119.5,149.5 
		128.2,149.5 128.2,169.8 90.2,169.8 90.2,220.1 80.2,220.1 80.2,206.8 76.9,207.1 76.9,119.5 79.9,119.5 79.7,96.2 89,96.2 89,150 
		109,150 109,134.1 	"/>
</g>
<g id="Layer_4">
	<polygon fill="none" stroke="#000000" stroke-miterlimit="10" points="75.7,65.7 75.7,94.7 80,94.7 79.7,96.2 89,96.2 89,74.7 
		105.7,74.7 105.7,89.5 116.2,89.5 116.2,74.7 138.2,74.7 138.2,106.7 149,106.7 149,74.7 170.5,74.7 170.5,100.2 181.2,100.2 
		181.2,75 203.7,75 203.7,113.5 213.5,113.5 213.5,74.6 225.4,74.6 225.4,65.7 213.7,65.7 213.9,35.5 203.5,35.5 203.7,65.6 
		181.2,65.8 181.4,35.5 171,35.5 170.9,65.8 148.5,66 148.7,35.5 138.7,35.5 138.7,66 115.9,66 116,35.5 105.7,35.5 105.5,65.8 	"/>
</g>
<g id="Layer_5">
	<polygon fill="none" stroke="#000000" stroke-miterlimit="10" points="225.4,65.7 225.4,74.6 235.9,74.5 235.9,113.5 242.2,113.5 
		242.2,94.5 252.2,94.5 252.2,76.5 257.5,76.1 257.5,49.5 261.9,49.5 261.9,35.5 236.5,35.5 236.5,65.5 	"/>
</g>
</svg>
