<?xml version="1.0" encoding="utf-8"?>
<!-- Generator: Adobe Illustrator 16.0.0, SVG Export Plug-In . SVG Version: 6.00 Build 0)  -->
<!DOCTYPE svg PUBLIC "-//W3C//DTD SVG 1.1//EN" "http://www.w3.org/Graphics/SVG/1.1/DTD/svg11.dtd" [
	<!ENTITY ns_flows "http://ns.adobe.com/Flows/1.0/">
	<!ENTITY ns_extend "http://ns.adobe.com/Extensibility/1.0/">
	<!ENTITY ns_ai "http://ns.adobe.com/AdobeIllustrator/10.0/">
	<!ENTITY ns_graphs "http://ns.adobe.com/Graphs/1.0/">
]>
<svg version="1.1" id="Layer_1" xmlns:x="&ns_extend;" xmlns:i="&ns_ai;" xmlns:graph="&ns_graphs;"
	 xmlns="http://www.w3.org/2000/svg" xmlns:xlink="http://www.w3.org/1999/xlink" xmlns:a="http://ns.adobe.com/AdobeSVGViewerExtensions/3.0/"
	 x="0px" y="0px" width="443.1px" height="332.3px" viewBox="0 0 443.1 332.3" enable-background="new 0 0 443.1 332.3"
	 xml:space="preserve">
<g id="Layer_1_xA0_Image_1_" display="none">
	
		<image display="inline" overflow="visible" enable-background="new    " width="581" height="678" id="Layer_1_xA0_Image" xlink:href="938CFF3C.png"  transform="matrix(0.4583 0 0 0.4608 19.3843 11.5381)">
	</image>
</g>
<g id="Layer_2">
	<polygon fill="none" stroke="#000000" stroke-miterlimit="10" points="128.5,121.8 140.2,121.8 140.2,202.5 105.9,202.5 
		105.9,173.5 117.2,173.5 117.2,167.8 120.5,167.8 119.9,160.5 121.5,160.2 121.2,151.5 116.9,151.8 116.9,146.5 97.2,146.5 
		97.2,135.2 128.2,134.8 	"/>
</g>
<g id="Layer_3">
	<polygon fill="none" stroke="#000000" stroke-miterlimit="10" points="85.2,173.5 84.9,184.2 66.2,183.8 66.5,208.5 58.5,208.5 
		58.2,221.5 54.9,221.8 54.9,242.2 81.2,243.5 87.2,202.5 105.9,202.5 105.9,173.5 	"/>
</g>
<g id="Layer_4">
	<polygon fill="none" stroke="#000000" stroke-miterlimit="10" points="97.2,135.2 97.2,146.5 80.4,146.5 80.4,150.8 77.9,150.8 
		77.9,159.8 76.5,159.8 76.5,167.8 80.4,167.8 80.4,173.5 85.2,173.5 84.9,184.2 56.2,184.2 56.2,135.2 	"/>
</g>
</svg>
