<?xml version="1.0" encoding="utf-8"?>
<!-- Generator: Adobe Illustrator 16.0.0, SVG Export Plug-In . SVG Version: 6.00 Build 0)  -->
<!DOCTYPE svg PUBLIC "-//W3C//DTD SVG 1.1//EN" "http://www.w3.org/Graphics/SVG/1.1/DTD/svg11.dtd" [
	<!ENTITY ns_flows "http://ns.adobe.com/Flows/1.0/">
	<!ENTITY ns_extend "http://ns.adobe.com/Extensibility/1.0/">
	<!ENTITY ns_ai "http://ns.adobe.com/AdobeIllustrator/10.0/">
	<!ENTITY ns_graphs "http://ns.adobe.com/Graphs/1.0/">
]>
<svg version="1.1" id="Layer_1" xmlns:x="&ns_extend;" xmlns:i="&ns_ai;" xmlns:graph="&ns_graphs;"
	 xmlns="http://www.w3.org/2000/svg" xmlns:xlink="http://www.w3.org/1999/xlink" xmlns:a="http://ns.adobe.com/AdobeSVGViewerExtensions/3.0/"
	 x="0px" y="0px" width="443.1px" height="332.3px" viewBox="0 0 443.1 332.3" enable-background="new 0 0 443.1 332.3"
	 xml:space="preserve">
<g id="Layer_1_xA0_Image_1_" display="none">
	
		<image display="inline" overflow="visible" enable-background="new    " width="581" height="678" id="Layer_1_xA0_Image" xlink:href="3147AE12.png"  transform="matrix(0.4583 0 0 0.4608 26.3066 11.5381)">
	</image>
	<path display="inline" fill="none" stroke="#000000" stroke-miterlimit="10" d="M298.9,93.5"/>
</g>
<g id="Layer_2" display="none">
	<path display="inline" fill="none" stroke="#000000" stroke-miterlimit="10" d="M208.5,78.8h2.7v5.7h2.3h20.7v14h13V76.8h16
		c0,0,0.5-19.2-6-27.8c-0.9-1.2-4.1-8.2-10.7-11.2c-12.8-5.6-32.9-4.1-36,27L208.5,78.8z"/>
</g>
<g id="Layer_4">
	<path fill="none" stroke="#000000" stroke-miterlimit="10" d="M113.5,86.5h0.3h39.7v-56c0,0-42.3-4.3-42.7,47.3l2.3-0.3L113.5,86.5
		z"/>
</g>
<g id="Layer_3" display="none">
	<path display="inline" fill="none" stroke="#000000" stroke-miterlimit="10" d="M154.9,31.5v56h42v-8.3h2c0,0,0.9-12.8-4.8-25.4
		c-1.4-3.1-4.1-7-6.3-9.7C181.2,35.8,169.4,32.7,154.9,31.5z"/>
</g>
<g id="Layer_3_1_">
	<path fill="none" stroke="#000000" stroke-miterlimit="10" d="M153.5,30.4v56h42v-8.3h2c0,0,0.9-12.8-4.8-25.4
		c-1.4-3.1-4.1-7-6.3-9.7C179.9,34.7,168,31.7,153.5,30.4z"/>
</g>
<g id="Layer_6">
	<path fill="none" stroke="#000000" stroke-miterlimit="10" d="M60.2,109l0.7-20.7h11.7v-6.7h24.3v-4.3h3.3V67h10.3l-0.7,10l2.3-0.3
		l0.7,9h23.7v19.7h-53v28h-6v11.3h8.7l0.3,5.7h-3v15.6h2.7l-0.7,6.4H73.2v34H51.5v-23.7l9.7-0.7l0.7-36c0,0,0.5-0.4-4.1,1
		c-2.7,0.9-9.8,5.7-12.6,2.7c-4.8-4.9-8.4-22.4-10.7-40.1L60.2,109z"/>
</g>
<path fill="none" stroke="#000000" stroke-miterlimit="10" d="M47.2,74.4h13.7v14h12.3v-7h24v-5l2.3,0.3c0,0,1.2-23.8-9.2-34.5
	c-2.8-2.9-6.2-5.2-9.7-6.7C65.8,29.2,47.5,37.1,47.2,74.4z"/>
<g id="Layer_2_1_">
	<path fill="none" stroke="#000000" stroke-miterlimit="10" d="M208.4,78.9h2.7v5.7h2.3h20.7v14h13V76.9h16c0,0,0.5-19.2-6-27.8
		c-0.9-1.2-4.1-8.2-10.7-11.2c-12.8-5.6-32.9-4.1-36,27L208.4,78.9z"/>
</g>
<g id="Layer_7">
	<polygon fill="none" stroke="#000000" stroke-miterlimit="10" points="198.3,68 207.9,68 207.9,78 210.5,78 210.5,83.7 233.5,83.7 
		233.5,97.7 233.5,114.3 237.5,114.3 237.5,126 198.3,126 198.3,133 134.2,133 134.2,106.3 136.9,106.3 136.9,86.7 196.2,86.7 
		196.2,78.3 198.2,78.3 	"/>
</g>
<polygon fill="none" stroke="#000000" stroke-miterlimit="10" points="83.5,133.4 77.5,133.4 77.5,144.7 123.9,144.4 123.9,151.1 
	126.2,151.1 126.2,166.4 123.9,166.4 123.9,172.4 73.2,172.4 73.4,220.1 83.5,220.1 83.5,185.1 127.5,184.7 127.5,211.7 
	146.2,211.7 146.2,133.4 "/>
</svg>
