<?xml version="1.0" encoding="utf-8"?>
<!-- Generator: Adobe Illustrator 16.0.0, SVG Export Plug-In . SVG Version: 6.00 Build 0)  -->
<!DOCTYPE svg PUBLIC "-//W3C//DTD SVG 1.1//EN" "http://www.w3.org/Graphics/SVG/1.1/DTD/svg11.dtd" [
	<!ENTITY ns_flows "http://ns.adobe.com/Flows/1.0/">
	<!ENTITY ns_extend "http://ns.adobe.com/Extensibility/1.0/">
	<!ENTITY ns_ai "http://ns.adobe.com/AdobeIllustrator/10.0/">
	<!ENTITY ns_graphs "http://ns.adobe.com/Graphs/1.0/">
]>
<svg version="1.1" xmlns:x="&ns_extend;" xmlns:i="&ns_ai;" xmlns:graph="&ns_graphs;"
	 xmlns="http://www.w3.org/2000/svg" xmlns:xlink="http://www.w3.org/1999/xlink" xmlns:a="http://ns.adobe.com/AdobeSVGViewerExtensions/3.0/"
	 x="0px" y="0px" width="443.1px" height="332.3px" viewBox="0 0 443.1 332.3" enable-background="new 0 0 443.1 332.3"
	 xml:space="preserve">
<g id="Layer_1_xA0_Image_1_" display="none">
	
		<image display="inline" overflow="visible"  a:adobe-opacity-share="1" width="578" height="687" id="Layer_1_xA0_Image" xlink:href="FA9F9B82.png"  transform="matrix(0.4615 0 0 0.4615 24.9233 7.3843)">
	</image>
</g>
<g id="Layer_2">
	<polygon fill="none" stroke="#000000" stroke-miterlimit="10" points="229.9,36.5 255.7,36.5 255.7,46.8 236.9,46.8 236.9,73.5 
		245.9,73.5 245.7,92.3 234.5,92.3 234.5,109.5 229.9,109.5 	"/>
</g>
<g id="Layer_3">
	<polygon fill="none" stroke="#000000" stroke-miterlimit="10" points="229.9,67.2 229.9,77.2 207.2,77.2 207.2,110.7 197,110.7 
		197,77.2 174.2,77.5 174.2,97.2 164,97.2 164,77.5 141.7,77.2 141.7,104 131.2,104 131.2,77 109.5,77 109.5,103.7 99.5,103.7 
		99.5,76.7 88.2,76.7 88.2,67.2 99.2,67.2 99.5,36.5 109.7,36.5 109.5,67.5 132.1,67.4 132.1,36.5 142.1,36.5 142,67.4 164.7,67.4 
		164.6,36.5 174.7,36.5 174.8,67.4 197.2,67.1 197.1,36.5 207.2,36.5 207.2,67.4 	"/>
</g>
<g id="Layer_4">
	<polygon fill="none" stroke="#000000" stroke-miterlimit="10" points="77,36.5 51,36.5 51,47 57.5,47 57.5,72.2 70.2,72.2 70,91.2 
		82.7,91.2 82.7,76.7 88.2,76.7 88.2,67.2 77.2,67.2 	"/>
</g>
<g id="Layer_5">
	<polyline fill="none" stroke="#000000" stroke-miterlimit="10" points="82.7,91.2 82.7,126.8 72.9,126.8 72.9,121.8 57.9,121.8 
		57.9,127.8 53,127.8 53,109.5 72.7,109.5 72.7,91.2 	"/>
</g>
<g id="Layer_6">
	<polygon fill="none" stroke="#000000" stroke-miterlimit="10" points="72.9,126.8 72.9,223.5 82.7,223.5 82.7,168 121.5,168.5 
		121.5,183.2 137.5,183.2 137.5,178.7 146.2,178.7 146.2,132.2 122,132.2 122,147.2 113,147.2 113,132.5 105.5,132.5 105.5,147.5 
		84.7,147.5 84.9,126.8 	"/>
</g>
<g id="Layer_7">
	<polygon fill="none" stroke="#000000" stroke-miterlimit="10" points="141.7,101.8 153.2,101.8 153.2,129.8 146.2,129.8 
		146.2,132.2 133.9,132.2 133.9,104 141.7,104 	"/>
</g>
</svg>
