<?xml version="1.0" encoding="utf-8"?>
<!-- Generator: Adobe Illustrator 16.0.0, SVG Export Plug-In . SVG Version: 6.00 Build 0)  -->
<!DOCTYPE svg PUBLIC "-//W3C//DTD SVG 1.1//EN" "http://www.w3.org/Graphics/SVG/1.1/DTD/svg11.dtd" [
	<!ENTITY ns_flows "http://ns.adobe.com/Flows/1.0/">
	<!ENTITY ns_extend "http://ns.adobe.com/Extensibility/1.0/">
	<!ENTITY ns_ai "http://ns.adobe.com/AdobeIllustrator/10.0/">
	<!ENTITY ns_graphs "http://ns.adobe.com/Graphs/1.0/">
]>
<svg version="1.1" xmlns:x="&ns_extend;" xmlns:i="&ns_ai;" xmlns:graph="&ns_graphs;"
	 xmlns="http://www.w3.org/2000/svg" xmlns:xlink="http://www.w3.org/1999/xlink" xmlns:a="http://ns.adobe.com/AdobeSVGViewerExtensions/3.0/"
	 x="0px" y="0px" width="443.1px" height="332.3px" viewBox="0 0 443.1 332.3" enable-background="new 0 0 443.1 332.3"
	 xml:space="preserve">
<g id="Layer_1_xA0_Image_1_" display="none">
	
		<image display="inline" overflow="visible"  a:adobe-opacity-share="1" width="578" height="679" id="Layer_1_xA0_Image" xlink:href="4CDCDD32.png"  transform="matrix(0.4615 0 0 0.4615 29.5386 12.4614)">
	</image>
</g>
<g id="Layer_2">
	<polygon fill="none" stroke="#000000" stroke-miterlimit="10" points="128.2,146.5 128.2,153.5 126.9,153.5 126.9,167.5 
		126.9,169.2 128.2,169.2 128.2,175.5 89.9,175.5 89.9,169.2 91.9,169.2 91.9,166.8 91.9,154.1 89.9,154.5 89.9,146.5 	"/>
</g>
<g id="Layer_4">
	<polygon fill="none" stroke="#000000" stroke-miterlimit="10" points="56.2,208.5 77.5,208.5 77.5,186 82,186 82,135 87.5,135 
		87.5,120.5 77.5,120.5 77.5,112.7 39,112.7 33.5,114.5 46,175.5 46.5,188.7 56.5,189 	"/>
</g>
<g id="Layer_5">
	<polyline fill="none" stroke="#000000" stroke-miterlimit="10" points="65.7,81.5 65.7,95.7 77.5,95.7 77.5,120.5 87.5,120.5 
		87.5,108 137.5,108.5 137.5,101 207,101 207,134 248.7,134 248.7,116.2 237.7,116.5 238,82.5 65.5,81.5 	"/>
</g>
<g id="Layer_6">
	<path fill="none" stroke="#000000" stroke-miterlimit="10" d="M49.2,76.5h16.3l0.2,5l34.5,0V45.7c0,0-1.8,0.5-5.5-2.8
		s-5.3-5.3-5.3-5.3l2.3-2.5c0,0-12.8-13-31.3,0l2.3,2C62.7,37.2,49,49,49.2,76.5z"/>
</g>
<g id="Layer_7">
	<path fill="none" stroke="#000000" stroke-miterlimit="10" d="M118.2,45.7v35.8l39.8,0V27c0,0-11.8-1.8-24,4.5l1,2.5
		c0,0-10.3,6-12.5,9.5C122.5,43.5,121.5,45.2,118.2,45.7z"/>
</g>
<g id="Layer_8">
	<path fill="none" stroke="#000000" stroke-miterlimit="10" d="M158,27v54.5h39.8V46.2c0,0-2.5,0-7.3-5.3c0,0-7-7.5-10-6l1.3-3.8
		C181.7,31.2,170,26.5,158,27z"/>
</g>
<g id="Layer_9">
	<path fill="none" stroke="#000000" stroke-miterlimit="10" d="M215.7,45.7v35.8h22.5v10.3h12.5v-14h16c0,0,1.8-30.3-15-39.8l2-2.8
		c0,0-16.3-10.8-29.3,0l1.8,2.3l-4.7,4C221.5,41.5,218,46.2,215.7,45.7z"/>
</g>
<g id="Layer_10">
	<path fill="none" stroke="#000000" stroke-miterlimit="10" d="M137.5,101"/>
	<polygon fill="none" stroke="#000000" stroke-miterlimit="10" points="138.1,136 149.7,136 149.7,134 174.2,134 174.2,101 
		138.1,101 	"/>
</g>
<g id="Layer_11">
	<rect x="174.2" y="101" fill="none" stroke="#000000" stroke-miterlimit="10" width="32.8" height="33"/>
</g>
<g id="Layer_3">
	<path fill="none" stroke="#000000" stroke-miterlimit="10" d="M77.5,225.1H86v-38.8h63.7V136H82.4C82,186,82,186,82,186h-4.5V225.1
		z"/>
</g>
</svg>
